<svg class="kzvk-graphics" version="1.1"
    xmlns="http://www.w3.org/2000/svg"
    xmlns:xlink="http://www.w3.org/1999/xlink">
    <def>
        <g id="kzvk-play-2016" viewBox="0 0 8 10">
            <polygon points="0,0 8,5 0,10" />
        </g>

        <g id="kzvk-pause-2016" viewBox="0 0 8 10">
            <rect width="3" height="10" rx="1.5" ry="1.5" />
            <rect width="3" height="10" rx="1.5" ry="1.5" x="5" />
        </g>

        <g id="kzvk-download-arrow-2016" viewBox="0 0 15 10">
            <path d="M 5,10 v -10 h 1 v 10 l 4,-4 l 0.5,0.5 l -5,5 l -5,-5 l 0.5,-0.5 z"/>
        </g>

        <g id="kzvk-pending-2016">
            <rect width="14" height="1" x="0" y="4" />
            <path d="M 0,0 l -4,-3 l 0.5,-0.5 l 4.7,3.5 l -4.7,3.5 l -0.5,-0.5 z"
                  transform="translate(14, 4.5)"/>
        </g>

        <g id="kzvk-cross-2016" viewBox="0 0 11 11">
            <polygon points="10.4,1.4 9.6,0.6 5.5,4.8 1.4,0.6 0.6,1.4 4.8,5.5 0.6,9.6
                1.4,10.4 5.5,6.2 9.6,10.4 10.4,9.6 6.2,5.5" />
        </g>

        <g id="last-fm-logo" viewBox="0 0 300 300">
            <path d="M136.6,199.5l-8.4-22.7c0,0-13.6,15.1-33.9,15.1c-18,0-30.8-15.7-30.8-40.7c0-32.1,16.2-43.6,32.1-43.6c23,0,30.3,14.9,36.5,33.9l8.4,26.1c8.4,25.3,24,45.7,69.2,45.7c32.4,0,54.3-9.9,54.3-36c0-21.1-12-32.1-34.5-37.3l-16.7-3.7c-11.5-2.6-14.9-7.3-14.9-15.1c0-8.9,7-14.1,18.5-14.1c12.5,0,19.3,4.7,20.4,15.9l26.1-3.1c-2.1-23.5-18.3-33.2-44.9-33.2c-23.5,0-46.5,8.9-46.5,37.3c0,17.8,8.6,29,30.3,34.2l17.8,4.2c13.3,3.1,17.7,8.6,17.7,16.2c0,9.7-9.4,13.6-27.1,13.6c-26.4,0-37.3-13.8-43.6-32.9l-8.6-26.1c-11-33.9-28.5-46.5-63.2-46.5c-38.4,0-58.7,24.3-58.7,65.5c0,39.7,20.4,61.1,56.9,61.1C122.5,213.3,136.6,199.5,136.6,199.5L136.6,199.5z"/>
        </g>
    </def>
</svg>
